<?xml version="1.0" standalone="no"?>
<!DOCTYPE svg PUBLIC "-//W3C//DTD SVG 20010904//EN"
 "http://www.w3.org/TR/2001/REC-SVG-20010904/DTD/svg10.dtd">
<svg version="1.0" xmlns="http://www.w3.org/2000/svg"
 width="156.000000pt" height="156.000000pt" viewBox="0 0 156.000000 156.000000"
 preserveAspectRatio="xMidYMid meet">

<g transform="translate(0.000000,156.000000) scale(0.100000,-0.100000)"
fill="#000000" stroke="none">
<path d="M0 780 l0 -780 89 0 c95 0 101 3 101 55 0 48 73 250 105 290 18 22
84 78 148 125 78 58 123 99 141 129 28 45 28 71 2 71 -13 0 -36 54 -36 87 0 6
-13 22 -29 36 -42 35 -58 74 -50 122 5 30 7 33 8 13 0 -16 4 -28 7 -28 10 0
33 28 27 33 -3 4 2 18 11 31 21 34 20 46 -5 46 -11 0 -17 5 -14 10 3 6 0 10
-8 10 -26 0 -47 -35 -48 -81 l0 -44 -25 70 -25 70 17 80 c10 44 26 98 36 120
20 45 93 125 114 125 7 0 21 12 30 26 12 18 24 24 44 22 19 -2 36 7 63 35 43
42 68 46 157 23 30 -7 71 -16 90 -20 24 -4 50 -21 80 -51 24 -25 58 -49 74
-55 22 -7 40 -25 60 -61 27 -49 28 -57 23 -130 -4 -43 -2 -81 2 -84 5 -3 12
-24 16 -48 4 -23 11 -50 16 -59 6 -11 5 -19 -3 -24 -6 -4 -14 -2 -16 4 -2 6
-14 27 -27 46 -15 22 -18 33 -9 29 26 -10 14 16 -16 34 -31 18 -37 29 -20 35
12 4 31 113 23 133 -3 8 -11 15 -18 15 -6 0 -20 10 -31 23 l-19 22 21 -18 c18
-15 22 -16 27 -3 4 10 -6 20 -31 32 -20 9 -49 26 -65 38 -25 18 -32 19 -85 8
-76 -16 -85 -15 -78 3 6 17 4 18 -47 6 -20 -5 -39 -5 -42 0 -8 12 -35 -1 -35
-16 0 -17 -25 -26 -38 -13 -6 6 -12 6 -16 -1 -7 -11 -1 -13 39 -15 11 -1 19
-6 18 -13 -2 -9 4 -10 23 -3 33 13 47 13 39 0 -4 -6 11 -10 37 -11 70 -1 127
-35 160 -97 25 -48 27 -55 13 -69 -9 -9 -22 -12 -33 -8 -43 18 -72 23 -66 13
5 -7 -2 -9 -20 -4 -14 3 -26 2 -26 -3 0 -5 -17 -9 -37 -9 -83 1 -103 -3 -130
-28 -22 -20 -23 -23 -6 -15 30 15 32 14 26 -9 -3 -11 -8 -18 -12 -16 -4 3 -12
-4 -19 -14 -12 -20 -1 -36 17 -25 5 3 12 1 16 -5 8 -13 48 -13 80 2 15 7 28
24 33 42 11 41 23 38 47 -13 19 -39 22 -41 65 -41 55 0 92 9 84 21 -3 5 0 9 6
9 7 0 9 9 5 23 l-7 22 22 -21 c24 -24 35 -101 20 -151 -4 -15 -9 -21 -9 -11
-2 28 -75 81 -115 82 -30 1 -35 -2 -30 -16 6 -19 2 -19 -84 -22 -29 -1 -32 1
-27 22 7 28 -11 29 -45 2 -14 -11 -32 -20 -41 -20 -15 0 -32 -46 -44 -120 l-5
-25 9 25 c7 19 9 21 10 6 1 -10 12 -29 26 -42 l25 -23 0 25 c0 21 3 23 19 14
13 -7 22 -7 26 0 3 5 34 9 68 9 l62 -1 -50 -10 c-62 -11 -77 -24 -44 -37 13
-5 18 -10 11 -10 -29 -2 2 -21 33 -21 54 0 88 17 82 40 -3 11 -1 20 4 20 14 0
11 -40 -5 -55 -8 -8 -33 -19 -56 -24 -23 -5 -52 -19 -64 -30 -22 -21 -56 -20
-56 0 0 15 -17 10 -24 -6 -3 -9 8 -29 28 -50 30 -31 40 -35 85 -35 28 0 51 4
51 8 0 5 7 17 15 28 13 17 14 15 10 -29 -2 -26 0 -47 5 -47 5 0 12 -10 16 -22
10 -36 33 -56 98 -88 74 -36 90 -49 140 -120 l39 -54 -6 -123 -7 -123 160 0
160 0 0 780 0 780 -780 0 -780 0 0 -780z m1130 376 c0 -14 -4 -28 -10 -31 -6
-4 -10 7 -10 24 0 17 5 31 10 31 6 0 10 -11 10 -24z m-33 -88 c-3 -8 -6 -5 -6
6 -1 11 2 17 5 13 3 -3 4 -12 1 -19z m-76 -5 c13 -15 12 -15 -8 -4 -24 12 -29
21 -14 21 5 0 15 -7 22 -17z m159 -162 c-5 -11 -15 -23 -21 -27 -6 -3 -3 5 6
20 20 30 30 35 15 7z m-256 -40 c-5 -5 -35 -11 -67 -14 -49 -5 -56 -3 -47 8 7
8 32 14 67 14 31 0 52 -4 47 -8z m147 -48 c-8 -15 -10 -15 -11 -2 0 17 10 32
18 25 2 -3 -1 -13 -7 -23z m-131 8 c0 -14 -27 -21 -80 -21 -50 0 -78 16 -38
22 54 7 118 7 118 -1z m146 -68 c-10 -26 -18 -8 -9 23 5 21 8 24 11 11 2 -10
1 -25 -2 -34z m-26 29 c0 -5 -7 -17 -16 -28 -8 -10 -14 -14 -11 -9 2 6 7 18
10 28 7 17 17 23 17 9z"/>
<path d="M555 1064 c-36 -21 -38 -24 -15 -24 20 0 22 -2 10 -10 -8 -5 -11 -10
-7 -10 5 0 20 9 34 20 14 11 22 20 18 20 -4 0 -2 7 5 15 17 21 2 17 -45 -11z"/>
<path d="M529 953 c-13 -16 -12 -17 4 -4 9 7 17 15 17 17 0 8 -8 3 -21 -13z"/>
<path d="M561 884 c0 -11 3 -14 6 -6 3 7 2 16 -1 19 -3 4 -6 -2 -5 -13z"/>
<path d="M530 832 c0 -5 10 -17 22 -28 l21 -19 -18 28 c-18 28 -25 33 -25 19z"/>
<path d="M590 805 c0 -3 9 -25 20 -47 11 -23 18 -50 14 -60 -3 -10 -1 -18 5
-18 16 0 13 67 -4 100 -13 26 -35 41 -35 25z"/>
<path d="M740 620 c0 -5 5 -10 12 -10 6 0 8 -3 5 -6 -3 -4 5 -16 19 -26 35
-28 40 -17 9 21 -27 31 -45 40 -45 21z"/>
<path d="M701 555 c8 -22 84 -125 96 -129 7 -3 -9 23 -34 57 -52 69 -67 88
-62 72z"/>
<path d="M828 503 c-38 -6 -35 -15 10 -40 31 -18 39 -19 50 -7 22 24 5 60 -26
53 -4 -1 -19 -4 -34 -6z"/>
<path d="M862 388 c-7 -10 -4 -21 14 -41 l24 -28 0 25 c0 49 -17 69 -38 44z"/>
<path d="M966 290 c2 -19 9 -60 14 -90 9 -53 9 -53 4 19 -2 40 -9 81 -14 90
-6 11 -8 6 -4 -19z"/>
<path d="M1032 307 c-8 -9 -8 -17 0 -27 8 -13 9 -12 5 1 -3 9 0 22 6 28 6 6 8
11 5 11 -3 0 -10 -6 -16 -13z"/>
<path d="M1211 164 c0 -11 3 -14 6 -6 3 7 2 16 -1 19 -3 4 -6 -2 -5 -13z"/>
<path d="M1222 110 c0 -14 2 -19 5 -12 2 6 2 18 0 25 -3 6 -5 1 -5 -13z"/>
<path d="M520 26 c0 -8 7 -16 15 -20 13 -4 14 -2 5 14 -13 23 -20 26 -20 6z"/>
<path d="M476 22 c-3 -6 1 -13 10 -16 23 -9 28 -2 10 13 -8 7 -17 8 -20 3z"/>
</g>
</svg>
